<?xml version="1.0" encoding="utf-8"?>
<!-- Generator: Adobe Illustrator 22.1.0, SVG Export Plug-In . SVG Version: 6.00 Build 0)  -->
<svg version="1.1" id="Layer_1" xmlns="http://www.w3.org/2000/svg" xmlns:xlink="http://www.w3.org/1999/xlink" x="0px" y="0px"
	 viewBox="0 0 200 200" style="enable-background:new 0 0 200 200;" xml:space="preserve">
<style type="text/css">
	.st0{fill:#5ECAEF;}
	.st1{fill:#9EDAEF;}
	.st2{fill:#208CBC;}
	.st3{fill:none;stroke:#9EDAEF;stroke-miterlimit:10;}
	.st4{fill:none;stroke:#2EB5E5;stroke-width:4;stroke-linecap:round;stroke-linejoin:round;stroke-miterlimit:10;}
</style>
<g>
	<g>
		<g>
			<polygon class="st0" points="115.2,68.2 93.4,100 62.7,100 84.5,68.2 			"/>
		</g>
		<g>
			<polygon class="st1" points="115.2,68.2 137.3,100 115.2,131.8 93.4,100 			"/>
		</g>
		<g>
			<polygon class="st2" points="93.4,100 115.2,131.8 84.5,131.8 62.7,100 			"/>
		</g>
	</g>
	<g>
		<g>
			<g>
				<polygon class="st3" points="62.4,36.3 40.6,68.1 9.9,68.1 31.8,36.3 				"/>
			</g>
			<g>
				<polygon class="st3" points="62.4,36.3 84.5,68.1 62.4,100 40.6,68.1 				"/>
			</g>
			<g>
				<polygon class="st3" points="40.6,68.1 62.4,100 31.8,100 9.9,68.1 				"/>
			</g>
		</g>
		<g>
			<g>
				<polygon class="st3" points="62.4,100 40.6,131.7 9.9,131.7 31.8,100 				"/>
			</g>
			<g>
				<polygon class="st3" points="62.4,100 84.5,131.7 62.4,163.6 40.6,131.7 				"/>
			</g>
			<g>
				<polygon class="st3" points="40.6,131.7 62.4,163.6 31.8,163.6 9.9,131.7 				"/>
			</g>
		</g>
		<g>
			<g>
				<polygon class="st3" points="168,36.3 146.1,68.1 115.5,68.1 137.3,36.3 				"/>
			</g>
			<g>
				<polygon class="st3" points="168,36.3 190.1,68.1 168,100 146.1,68.1 				"/>
			</g>
			<g>
				<polygon class="st3" points="146.1,68.1 168,100 137.3,100 115.5,68.1 				"/>
			</g>
		</g>
		<g>
			<g>
				<polygon class="st3" points="168,100 146.1,131.7 115.5,131.7 137.3,100 				"/>
			</g>
			<g>
				<polygon class="st3" points="168,100 190.1,131.7 168,163.6 146.1,131.7 				"/>
			</g>
			<g>
				<polygon class="st3" points="146.1,131.7 168,163.6 137.3,163.6 115.5,131.7 				"/>
			</g>
		</g>
		<g>
			<g>
				<polygon class="st3" points="115.2,4.5 93.4,36.3 62.7,36.3 84.5,4.5 				"/>
			</g>
			<g>
				<polygon class="st3" points="115.2,4.5 137.3,36.3 115.2,68.2 93.4,36.3 				"/>
			</g>
			<g>
				<polygon class="st3" points="93.4,36.3 115.2,68.2 84.5,68.2 62.7,36.3 				"/>
			</g>
		</g>
		<g>
			<g>
				<polygon class="st3" points="115.2,131.8 93.4,163.6 62.7,163.6 84.5,131.8 				"/>
			</g>
			<g>
				<polygon class="st3" points="115.2,131.8 137.3,163.6 115.2,195.5 93.4,163.6 				"/>
			</g>
			<g>
				<polygon class="st3" points="93.4,163.6 115.2,195.5 84.5,195.5 62.7,163.6 				"/>
			</g>
		</g>
	</g>
	<g>
		<g>
			<g>
				<line class="st4" x1="40.6" y1="68.1" x2="32.6" y2="68.1"/>
			</g>
		</g>
		<g>
			<g>
				<line class="st4" x1="40.6" y1="131.7" x2="32.6" y2="131.7"/>
			</g>
		</g>
		<g>
			<g>
				<line class="st4" x1="146.1" y1="68.1" x2="138.1" y2="68.1"/>
			</g>
		</g>
		<g>
			<g>
				<line class="st4" x1="146.1" y1="131.7" x2="138.1" y2="131.7"/>
			</g>
		</g>
		<g>
			<g>
				<line class="st4" x1="93.4" y1="36.3" x2="85.3" y2="36.3"/>
			</g>
		</g>
		<g>
			<g>
				<line class="st4" x1="93.4" y1="163.6" x2="85.3" y2="163.6"/>
			</g>
		</g>
		<g>
			<g>
				<g>
					<line class="st4" x1="93.4" y1="100" x2="85.3" y2="100"/>
				</g>
			</g>
			<line class="st4" x1="93.4" y1="100" x2="98.2" y2="93.1"/>
			<line class="st4" x1="93.4" y1="100" x2="98.3" y2="106.8"/>
			<line class="st4" x1="62.7" y1="100" x2="67.6" y2="93.1"/>
			<line class="st4" x1="62.7" y1="100" x2="67.7" y2="107.1"/>
			<path class="st4" d="M67.7,107.1"/>
			<path class="st4" d="M98.4,107.1"/>
			<path class="st4" d="M67.7,107.1"/>
			<path class="st4" d="M98.4,107.1"/>
			<path class="st4" d="M132.4,93.1"/>
			<path class="st4" d="M67.6,93.1"/>
			<path class="st4" d="M132.4,107.1"/>
			<path class="st4" d="M67.7,107.1"/>
			<line class="st4" x1="137.3" y1="100" x2="132.4" y2="93.1"/>
			<line class="st4" x1="132.4" y1="107.1" x2="137.3" y2="100"/>
			<line class="st4" x1="84.5" y1="68.2" x2="79.5" y2="75.7"/>
			<line class="st4" x1="94.5" y1="68.2" x2="84.5" y2="68.2"/>
			<line class="st4" x1="115.2" y1="68.2" x2="105.8" y2="68.2"/>
			<line class="st4" x1="110" y1="76.1" x2="115.2" y2="68.2"/>
			<line class="st4" x1="120.7" y1="75.8" x2="115.2" y2="68.2"/>
			<line class="st4" x1="115.2" y1="131.8" x2="104" y2="131.8"/>
			<line class="st4" x1="109.7" y1="123.6" x2="115.2" y2="131.8"/>
			<line class="st4" x1="121.4" y1="123.3" x2="115.2" y2="131.8"/>
			<line class="st4" x1="84.5" y1="131.8" x2="79.6" y2="124.3"/>
			<line class="st4" x1="93.6" y1="131.8" x2="84.5" y2="131.8"/>
			<line class="st4" x1="40.6" y1="68.1" x2="45.5" y2="61.3"/>
			<line class="st4" x1="40.6" y1="68.1" x2="45.6" y2="75"/>
			<line class="st4" x1="9.9" y1="68.1" x2="14.8" y2="61.3"/>
			<line class="st4" x1="9.9" y1="68.1" x2="15" y2="75.3"/>
			<path class="st4" d="M15,75.3"/>
			<path class="st4" d="M45.6,75.3"/>
			<path class="st4" d="M15,75.3"/>
			<path class="st4" d="M45.6,75.3"/>
			<path class="st4" d="M79.6,61.3"/>
			<path class="st4" d="M14.8,61.3"/>
			<path class="st4" d="M79.6,75.3"/>
			<path class="st4" d="M15,75.3"/>
			<line class="st4" x1="84.5" y1="68.1" x2="79.6" y2="61.3"/>
			<line class="st4" x1="79.6" y1="75.3" x2="84.5" y2="68.1"/>
			<line class="st4" x1="31.8" y1="36.3" x2="26.8" y2="43.9"/>
			<line class="st4" x1="41.8" y1="36.3" x2="31.8" y2="36.3"/>
			<line class="st4" x1="62.4" y1="36.3" x2="53" y2="36.3"/>
			<line class="st4" x1="57.2" y1="44.2" x2="62.4" y2="36.3"/>
			<line class="st4" x1="68" y1="44" x2="62.4" y2="36.3"/>
			<line class="st4" x1="62.4" y1="100" x2="51.3" y2="100"/>
			<line class="st4" x1="57" y1="91.8" x2="62.4" y2="100"/>
			<line class="st4" x1="68.6" y1="91.5" x2="62.4" y2="100"/>
			<line class="st4" x1="31.8" y1="100" x2="26.9" y2="92.4"/>
			<line class="st4" x1="40.8" y1="100" x2="31.8" y2="100"/>
			<line class="st4" x1="40.6" y1="131.7" x2="45.5" y2="124.9"/>
			<line class="st4" x1="40.6" y1="131.7" x2="45.6" y2="138.6"/>
			<line class="st4" x1="9.9" y1="131.7" x2="14.8" y2="124.9"/>
			<line class="st4" x1="9.9" y1="131.7" x2="15" y2="138.9"/>
			<path class="st4" d="M15,138.9"/>
			<path class="st4" d="M45.6,138.9"/>
			<path class="st4" d="M15,138.9"/>
			<path class="st4" d="M45.6,138.9"/>
			<path class="st4" d="M79.6,124.9"/>
			<path class="st4" d="M14.8,124.9"/>
			<path class="st4" d="M79.6,138.9"/>
			<path class="st4" d="M15,138.9"/>
			<line class="st4" x1="84.5" y1="131.7" x2="79.6" y2="124.9"/>
			<line class="st4" x1="79.6" y1="138.9" x2="84.5" y2="131.7"/>
			<line class="st4" x1="31.8" y1="100" x2="26.8" y2="107.5"/>
			<line class="st4" x1="41.8" y1="100" x2="31.8" y2="100"/>
			<line class="st4" x1="62.4" y1="100" x2="53" y2="100"/>
			<line class="st4" x1="57.2" y1="107.8" x2="62.4" y2="100"/>
			<line class="st4" x1="68" y1="107.6" x2="62.4" y2="100"/>
			<line class="st4" x1="62.4" y1="163.6" x2="51.3" y2="163.6"/>
			<line class="st4" x1="57" y1="155.4" x2="62.4" y2="163.6"/>
			<line class="st4" x1="68.6" y1="155.1" x2="62.4" y2="163.6"/>
			<line class="st4" x1="31.8" y1="163.6" x2="26.9" y2="156"/>
			<line class="st4" x1="40.8" y1="163.6" x2="31.8" y2="163.6"/>
			<line class="st4" x1="146.1" y1="68.1" x2="151" y2="61.3"/>
			<line class="st4" x1="146.1" y1="68.1" x2="151.1" y2="75"/>
			<line class="st4" x1="115.5" y1="68.1" x2="120.4" y2="61.3"/>
			<line class="st4" x1="115.5" y1="68.1" x2="120.5" y2="75.3"/>
			<path class="st4" d="M120.5,75.3"/>
			<path class="st4" d="M151.2,75.3"/>
			<path class="st4" d="M120.5,75.3"/>
			<path class="st4" d="M151.2,75.3"/>
			<path class="st4" d="M185.1,61.3"/>
			<path class="st4" d="M120.4,61.3"/>
			<path class="st4" d="M185.1,75.3"/>
			<path class="st4" d="M120.5,75.3"/>
			<line class="st4" x1="190.1" y1="68.1" x2="185.1" y2="61.3"/>
			<line class="st4" x1="185.1" y1="75.3" x2="190.1" y2="68.1"/>
			<line class="st4" x1="137.3" y1="36.3" x2="132.3" y2="43.9"/>
			<line class="st4" x1="147.3" y1="36.3" x2="137.3" y2="36.3"/>
			<line class="st4" x1="168" y1="36.3" x2="158.5" y2="36.3"/>
			<line class="st4" x1="162.7" y1="44.2" x2="168" y2="36.3"/>
			<line class="st4" x1="173.5" y1="44" x2="168" y2="36.3"/>
			<line class="st4" x1="168" y1="100" x2="156.8" y2="100"/>
			<line class="st4" x1="162.5" y1="91.8" x2="168" y2="100"/>
			<line class="st4" x1="174.1" y1="91.5" x2="168" y2="100"/>
			<line class="st4" x1="137.3" y1="100" x2="132.4" y2="92.4"/>
			<line class="st4" x1="146.4" y1="100" x2="137.3" y2="100"/>
			<line class="st4" x1="146.1" y1="131.7" x2="151" y2="124.9"/>
			<line class="st4" x1="146.1" y1="131.7" x2="151.1" y2="138.6"/>
			<line class="st4" x1="115.5" y1="131.7" x2="120.4" y2="124.9"/>
			<line class="st4" x1="115.5" y1="131.7" x2="120.5" y2="138.9"/>
			<path class="st4" d="M120.5,138.9"/>
			<path class="st4" d="M151.2,138.9"/>
			<path class="st4" d="M120.5,138.9"/>
			<path class="st4" d="M151.2,138.9"/>
			<path class="st4" d="M185.1,124.9"/>
			<path class="st4" d="M120.4,124.9"/>
			<path class="st4" d="M185.1,138.9"/>
			<path class="st4" d="M120.5,138.9"/>
			<line class="st4" x1="190.1" y1="131.7" x2="185.1" y2="124.9"/>
			<line class="st4" x1="185.1" y1="138.9" x2="190.1" y2="131.7"/>
			<line class="st4" x1="137.3" y1="100" x2="132.3" y2="107.5"/>
			<line class="st4" x1="147.3" y1="100" x2="137.3" y2="100"/>
			<line class="st4" x1="168" y1="100" x2="158.5" y2="100"/>
			<line class="st4" x1="162.7" y1="107.8" x2="168" y2="100"/>
			<line class="st4" x1="173.5" y1="107.6" x2="168" y2="100"/>
			<line class="st4" x1="168" y1="163.6" x2="156.8" y2="163.6"/>
			<line class="st4" x1="162.5" y1="155.4" x2="168" y2="163.6"/>
			<line class="st4" x1="174.1" y1="155.1" x2="168" y2="163.6"/>
			<line class="st4" x1="137.3" y1="163.6" x2="132.4" y2="156"/>
			<line class="st4" x1="146.4" y1="163.6" x2="137.3" y2="163.6"/>
			<line class="st4" x1="93.4" y1="36.3" x2="98.2" y2="29.5"/>
			<line class="st4" x1="93.4" y1="36.3" x2="98.3" y2="43.2"/>
			<line class="st4" x1="62.7" y1="36.3" x2="67.6" y2="29.5"/>
			<line class="st4" x1="62.7" y1="36.3" x2="67.7" y2="43.5"/>
			<path class="st4" d="M67.7,43.5"/>
			<path class="st4" d="M98.4,43.5"/>
			<path class="st4" d="M67.7,43.5"/>
			<path class="st4" d="M98.4,43.5"/>
			<path class="st4" d="M132.4,29.5"/>
			<path class="st4" d="M67.6,29.5"/>
			<path class="st4" d="M132.4,43.5"/>
			<path class="st4" d="M67.7,43.5"/>
			<line class="st4" x1="137.3" y1="36.3" x2="132.4" y2="29.5"/>
			<line class="st4" x1="132.4" y1="43.5" x2="137.3" y2="36.3"/>
			<line class="st4" x1="84.5" y1="4.5" x2="79.5" y2="12"/>
			<line class="st4" x1="94.5" y1="4.5" x2="84.5" y2="4.5"/>
			<line class="st4" x1="115.2" y1="4.5" x2="105.8" y2="4.5"/>
			<line class="st4" x1="110" y1="12.4" x2="115.2" y2="4.5"/>
			<line class="st4" x1="120.7" y1="12.2" x2="115.2" y2="4.5"/>
			<line class="st4" x1="115.2" y1="68.2" x2="104" y2="68.2"/>
			<line class="st4" x1="109.7" y1="59.9" x2="115.2" y2="68.2"/>
			<line class="st4" x1="121.4" y1="59.6" x2="115.2" y2="68.2"/>
			<line class="st4" x1="84.5" y1="68.2" x2="79.6" y2="60.6"/>
			<line class="st4" x1="93.6" y1="68.2" x2="84.5" y2="68.2"/>
			<line class="st4" x1="93.4" y1="163.6" x2="98.2" y2="156.8"/>
			<line class="st4" x1="93.4" y1="163.6" x2="98.3" y2="170.5"/>
			<line class="st4" x1="62.7" y1="163.6" x2="67.6" y2="156.8"/>
			<line class="st4" x1="62.7" y1="163.6" x2="67.7" y2="170.8"/>
			<path class="st4" d="M67.7,170.8"/>
			<path class="st4" d="M98.4,170.8"/>
			<path class="st4" d="M67.7,170.8"/>
			<path class="st4" d="M98.4,170.8"/>
			<path class="st4" d="M132.4,156.8"/>
			<path class="st4" d="M67.6,156.8"/>
			<path class="st4" d="M132.4,170.8"/>
			<path class="st4" d="M67.7,170.8"/>
			<line class="st4" x1="137.3" y1="163.6" x2="132.4" y2="156.8"/>
			<line class="st4" x1="132.4" y1="170.8" x2="137.3" y2="163.6"/>
			<line class="st4" x1="84.5" y1="131.8" x2="79.5" y2="139.3"/>
			<line class="st4" x1="94.5" y1="131.8" x2="84.5" y2="131.8"/>
			<line class="st4" x1="115.2" y1="131.8" x2="105.8" y2="131.8"/>
			<line class="st4" x1="110" y1="139.7" x2="115.2" y2="131.8"/>
			<line class="st4" x1="120.7" y1="139.5" x2="115.2" y2="131.8"/>
			<line class="st4" x1="115.2" y1="195.5" x2="104" y2="195.5"/>
			<line class="st4" x1="109.7" y1="187.2" x2="115.2" y2="195.5"/>
			<line class="st4" x1="121.4" y1="187" x2="115.2" y2="195.5"/>
			<line class="st4" x1="84.5" y1="195.5" x2="79.6" y2="187.9"/>
			<line class="st4" x1="93.6" y1="195.5" x2="84.5" y2="195.5"/>
		</g>
	</g>
</g>
</svg>
